<svg xmlns="http://www.w3.org/2000/svg" width="38.612" height="38.208" viewBox="0 0 38.612 38.208">
  <g id="_874_ch_h" data-name="874_ch_h" transform="translate(0.403)">
    <rect id="長方形_46" data-name="長方形 46" width="38" height="38" transform="translate(-0.403)" fill="none"/>
    <line id="線_8" data-name="線 8" x2="7.125" transform="translate(8.708 22.563)" fill="none" stroke="#ff7082" stroke-linecap="round" stroke-linejoin="round" stroke-width="2"/>
    <line id="線_9" data-name="線 9" x2="3.167" transform="translate(8.708 26.521)" fill="none" stroke="#ff7082" stroke-linecap="round" stroke-linejoin="round" stroke-width="2"/>
    <line id="線_10" data-name="線 10" transform="translate(15.042 26.521)" fill="none" stroke="#ff7082" stroke-linecap="round" stroke-linejoin="round" stroke-width="2"/>
    <path id="パス_25" data-name="パス 25" d="M4.167,38H17.625a7.125,7.125,0,0,0,7.125-7.125v-4.75A7.125,7.125,0,0,0,17.625,19h-9.5A7.125,7.125,0,0,0,1,26.125V41.167Z" transform="translate(-0.208 -3.958)" fill="none" stroke="#ff7082" stroke-linecap="round" stroke-linejoin="round" stroke-width="2"/>
    <line id="線_11" data-name="線 11" x1="7.125" transform="translate(22.167 9.896)" fill="none" stroke="#ff7082" stroke-linecap="round" stroke-linejoin="round" stroke-width="2"/>
    <line id="線_12" data-name="線 12" x1="3.167" transform="translate(26.125 13.854)" fill="none" stroke="#ff7082" stroke-linecap="round" stroke-linejoin="round" stroke-width="2"/>
    <path id="パス_26" data-name="パス 26" d="M17,13.292V10.125A7.125,7.125,0,0,1,24.125,3h9.5a7.125,7.125,0,0,1,7.125,7.125V25.167L37.583,22H30.458" transform="translate(-3.542 -0.625)" fill="none" stroke="#ff7082" stroke-linecap="round" stroke-linejoin="round" stroke-width="2"/>
  </g>
</svg>
