<?xml version="1.0" encoding="utf-8"?>
<!-- Generator: Adobe Illustrator 24.2.0, SVG Export Plug-In . SVG Version: 6.00 Build 0)  -->
<svg version="1.0" id="レイヤー_1" xmlns="http://www.w3.org/2000/svg" xmlns:xlink="http://www.w3.org/1999/xlink" x="0px"
	 y="0px" viewBox="0 0 70 70" style="enable-background:new 0 0 70 70;" xml:space="preserve">
<style type="text/css">
	.st0{fill:#FFFFFF;}
	.st1{fill:#FF5367;}
</style>
<path class="st0" d="M66.4,70.2H3.6c-2,0-3.6-1.6-3.6-3.6V3.8c0-2,1.6-3.6,3.6-3.6h62.8c2,0,3.6,1.6,3.6,3.6v62.8
	C70,68.5,68.4,70.2,66.4,70.2z"/>
<g>
	<path class="st1" d="M50,17.7H19.3c-2.8,0-5,1.9-5,4.3v40.3c0,2.4,2.3,4.3,5,4.3H50c2.8,0,5-1.9,5-4.3V22.1
		C55,19.7,52.8,17.7,50,17.7z M26.7,59.8h-5.3v-4.6h5.3V59.8z M26.7,52.1h-5.3v-4.6h5.3V52.1z M26.7,44.5h-5.3v-4.6h5.3V44.5z
		 M37.3,59.8H32v-4.6h5.3V59.8z M37.3,52.1H32v-4.6h5.3V52.1z M37.3,44.5H32v-4.6h5.3V44.5z M47.9,59.8h-5.3V47.5h5.3V59.8z
		 M47.9,44.5h-5.3v-4.6h5.3V44.5z M47.9,33H21.3v-7.6h26.6V33z"/>
</g>
<g>
	<path class="st1" d="M13.1,6l0-1.5c0-0.4,0-0.8-0.1-1c0.6,0,1.1,0.1,1.5,0.2c0.2,0,0.3,0.1,0.3,0.2c0,0.1,0,0.1-0.1,0.2
		c-0.1,0.2-0.2,0.4-0.2,0.5c0,0.3,0,0.6-0.1,1.1c0.5-0.1,1-0.3,1.7-0.5c0,0,0.1,0,0.1,0c0.1,0,0.1,0,0.1,0.1c0.1,0.3,0.1,0.7,0.1,1
		c0,0.1-0.1,0.2-0.2,0.2C15.6,6.8,15,7,14.4,7.1l0,1.9c1.2-0.5,2.2-0.7,3.2-0.7c0.9,0,1.6,0.3,2.1,0.8c0.5,0.5,0.7,1.1,0.7,1.8
		c0,0.9-0.3,1.6-0.9,2c-0.5,0.4-1.2,0.6-2,0.6c-0.4,0-0.7,0-1.1-0.1c-0.2-0.1-0.3-0.2-0.3-0.4c0-0.4-0.2-0.8-0.4-1.1
		c0.5,0.2,1,0.2,1.6,0.2c0.4,0,0.8-0.1,1-0.4c0.3-0.2,0.4-0.6,0.4-1c0-0.4-0.1-0.8-0.4-1c-0.2-0.2-0.6-0.3-1-0.3
		c-0.8,0-1.8,0.3-3,0.9c0,0.6,0,1.1,0.1,1.6c0.1,1,0.1,1.6,0.1,1.7c0,0.1,0,0.2,0,0.3c0,0.1-0.1,0.1-0.2,0.1c-0.3,0.1-0.6,0.1-1,0.2
		c-0.1,0-0.2-0.1-0.3-0.3c-0.4-0.5-1-1.1-1.8-1.7c-0.2,0.1-0.3,0.2-0.4,0.3c-0.1,0.1-0.1,0.1-0.2,0.1c-0.1,0-0.2-0.1-0.3-0.2
		c-0.1-0.2-0.3-0.6-0.6-1.2c0.4-0.1,0.8-0.3,1.2-0.5c0.4-0.2,1.1-0.6,2.1-1.2V7.3c-0.9,0.1-1.6,0.1-2.2,0.1c-0.2,0-0.3-0.1-0.3-0.3
		c0-0.2-0.1-0.6-0.1-1.1c0.3,0,0.6,0.1,1,0.1C11.8,6.1,12.4,6.1,13.1,6z M13.1,10.9c-0.6,0.4-1,0.7-1.3,0.9c0.4,0.2,0.9,0.4,1.2,0.6
		c0,0,0.1,0,0.1,0c0,0,0.1,0,0.1-0.1c0,0,0,0,0,0c0-0.1,0-0.4,0-0.7C13.2,11.3,13.2,11,13.1,10.9z M17.5,6c0.1-0.3,0.3-0.6,0.6-1
		c0.1-0.1,0.1-0.2,0.2-0.2c0,0,0,0,0.1,0c1.1,0.3,2,0.9,2.8,1.6c0.1,0.1,0.1,0.1,0.1,0.1c0,0,0,0.1-0.1,0.1
		c-0.1,0.1-0.2,0.3-0.4,0.5c-0.2,0.2-0.3,0.4-0.3,0.4c0,0-0.1,0-0.1,0c-0.1,0-0.1,0-0.1,0C19.5,6.9,18.6,6.4,17.5,6z"/>
	<path class="st1" d="M33,11.6c0.3,0.2,0.6,0.3,0.9,0.5c0.1,0.1,0.2,0.1,0.3,0.1c0,0,0.1,0.1,0.1,0.1c0,0,0,0.1,0,0.2
		c0,0.5-0.1,0.8-0.2,1c-0.1,0.2-0.2,0.3-0.4,0.5c-0.3,0.3-1.1,0.4-2.2,0.4c-1,0-1.6-0.1-2-0.2c-0.4-0.2-0.5-0.5-0.5-0.9v-2.7h-1.2
		c-0.4,2.2-1.7,3.5-4,4c-0.1,0-0.2,0-0.3,0c-0.1,0-0.2-0.1-0.3-0.3c-0.2-0.3-0.4-0.6-0.6-0.8c2.3-0.3,3.5-1.2,3.8-2.9h0l-1.8,0
		c-0.1,0-0.1,0-0.1,0c0,0,0-0.1,0-0.1l0-1.6V5l0-1.6c0-0.1,0-0.1,0-0.1c0,0,0.1,0,0.1,0l1.8,0h4.2l1.8,0c0.1,0,0.1,0,0.1,0
		s0,0.1,0,0.1l0,1.6v3.9l0,1.6c0,0.1,0,0.1,0,0.1s-0.1,0-0.1,0l-1.8,0h-0.2v2.1c0,0.3,0.1,0.4,0.2,0.4c0.1,0,0.5,0.1,1,0.1
		c0.6,0,1-0.1,1.1-0.2C32.9,12.8,33,12.4,33,11.6z M31.1,4.5h-5.3v1h5.3V4.5z M25.8,7.4h5.3V6.5h-5.3V7.4z M31.1,9.5v-1h-5.3v1H31.1
		z"/>
	<path class="st1" d="M39,2.8c0.3,0.2,0.5,0.5,0.8,0.8c0.1,0.1,0.1,0.1,0.1,0.2c0,0.1-0.1,0.1-0.2,0.1c-0.1,0-0.2,0.1-0.4,0.1
		c-0.2,0.1-0.5,0.2-0.8,0.3v1.9l1,0c0.1,0,0.1,0,0.1,0.1v0.9c0,0.1,0,0.1-0.1,0.1c0,0-0.1,0-0.3,0c-0.2,0-0.4,0-0.6,0
		c0.3,0.7,0.8,1.3,1.4,2c-0.1,0.2-0.3,0.5-0.4,0.9c-0.1,0.2-0.1,0.3-0.2,0.3c0,0-0.1-0.1-0.2-0.2c-0.3-0.5-0.6-1-0.8-1.4l0.1,5.6
		c0,0.1,0,0.1,0,0.1c0,0-0.1,0-0.1,0h-1c-0.1,0-0.1,0-0.1,0c0,0,0-0.1,0-0.1c0,0,0-0.3,0-0.8c0-1.6,0.1-3.1,0.1-4.5
		c-0.3,1.1-0.8,2.1-1.3,2.9c-0.1,0.1-0.1,0.2-0.2,0.2c-0.1,0-0.1-0.1-0.1-0.2c-0.1-0.4-0.3-0.8-0.4-1.1c0.8-1,1.4-2.2,1.8-3.5h-0.2
		l-1.2,0c-0.1,0-0.1,0-0.1-0.1V6.4c0-0.1,0-0.1,0.1-0.1l1.2,0h0.3V4.8c-0.3,0.1-0.6,0.1-0.8,0.2C36.3,5,36.2,5,36.2,5
		c-0.1,0-0.1,0-0.2-0.1c0,0-0.1-0.1-0.1-0.3c-0.1-0.3-0.2-0.5-0.4-0.7c1.1-0.1,2.1-0.4,2.9-0.8C38.7,3,38.9,2.9,39,2.8z M41.8,12.6
		c0.2,0.1,0.5,0.3,0.8,0.5c0.1,0.1,0.2,0.1,0.2,0.2c0,0.1-0.1,0.1-0.2,0.2c-0.1,0-0.2,0.1-0.4,0.2c-0.6,0.4-1.3,0.7-2.1,0.9
		c-0.2,0-0.3,0.1-0.3,0.1c-0.1,0-0.2-0.1-0.3-0.3c-0.2-0.3-0.3-0.6-0.5-0.7c0.9-0.1,1.7-0.4,2.3-0.7C41.5,12.9,41.6,12.8,41.8,12.6z
		 M44.7,6H44v0.6h1.5l1.8,0c0.1,0,0.1,0,0.1,0.1v0.7c0,0.1,0,0.1-0.1,0.1l-1.8,0h-3.8l-1.7,0c-0.1,0-0.1,0-0.1,0c0,0,0-0.1,0-0.1
		V6.7c0-0.1,0-0.1,0-0.1c0,0,0.1,0,0.1,0l1.7,0h1V6h-0.5l-1.6,0c-0.1,0-0.1,0-0.1,0c0,0,0-0.1,0-0.1V5.2c0-0.1,0-0.1,0-0.1
		c0,0,0.1,0,0.1,0l1.6,0h0.5V4.5h-0.8l-1.7,0c-0.1,0-0.1,0-0.1,0c0,0,0-0.1,0-0.1V3.8c0-0.1,0-0.1,0-0.1c0,0,0.1,0,0.1,0l1.7,0h0.8
		c0-0.4,0-0.7-0.1-0.9c0.5,0,1,0,1.3,0.1c0.1,0,0.2,0.1,0.2,0.1c0,0,0,0.1-0.1,0.2C44,3.3,44,3.4,44,3.6h1.1l1.7,0
		c0.1,0,0.1,0,0.1,0c0,0,0,0.1,0,0.1v0.6c0,0.1,0,0.1,0,0.1c0,0-0.1,0-0.1,0l-1.7,0H44v0.6h0.7l1.6,0c0.1,0,0.1,0,0.1,0
		c0,0,0,0.1,0,0.1v0.6c0,0.1,0,0.1,0,0.1c0,0-0.1,0-0.1,0L44.7,6z M47.6,13.6c-0.2,0.2-0.3,0.5-0.5,0.8c-0.1,0.2-0.2,0.3-0.3,0.3
		c-0.1,0-0.2,0-0.3-0.1c-0.8-0.3-1.6-0.7-2.3-1.2c0,0-0.1-0.1-0.1-0.1s0-0.1,0.1-0.1l0.6-0.6h-2.7l-1.6,0c-0.1,0-0.1,0-0.1,0
		c0,0,0-0.1,0-0.1l0-1.2v-2l0-1.2c0-0.1,0-0.1,0-0.1c0,0,0.1,0,0.1,0l1.6,0h2.5l1.6,0c0.1,0,0.1,0,0.1,0c0,0,0,0.1,0,0.1l0,1.2v2
		l0,1.2c0,0.1,0,0.1,0,0.1s-0.1,0-0.1,0l-0.4,0c-0.3,0-0.6,0-0.9,0C45.7,13,46.5,13.4,47.6,13.6z M45.1,8.8h-3.5v0.5h3.5V8.8z
		 M41.7,10.5h3.5V10h-3.5V10.5z M45.1,11.8v-0.5h-3.5v0.5H45.1z"/>
	<path class="st1" d="M51.5,3.2c0.6,0.1,1.1,0.3,1.4,0.4c0.2,0.1,0.2,0.2,0.2,0.3c0,0.1,0,0.1-0.1,0.2c-0.1,0.1-0.2,0.3-0.2,0.6
		c-0.1,0.6-0.2,1.4-0.4,2.5c0,0.6-0.1,0.9-0.1,1.1c0,0.1,0,0.2,0,0.3c0.3-0.6,0.6-1.1,0.9-1.7c0.1,0.3,0.2,0.6,0.4,0.8
		C53.8,7.9,53.8,8,53.8,8c0,0.1,0,0.2-0.1,0.3C53.3,9.1,53,9.7,52.9,10c0,0.1-0.1,0.2-0.1,0.4c0,0.1-0.1,0.2-0.2,0.2
		c-0.2,0-0.5,0.1-1,0.2c-0.1,0-0.1,0-0.2-0.2C51.2,9.9,51.1,9,51.1,8c0-0.6,0.1-1.6,0.3-3.2C51.5,4.1,51.5,3.6,51.5,3.2z M55.7,3.3
		c0.7,0,1.2,0.1,1.5,0.2c0.2,0,0.3,0.1,0.3,0.2c0,0,0,0.1,0,0.1c0,0.1,0,0.3,0,0.6c0.1,1.6,0.2,2.8,0.2,3.4c0,2-0.3,3.5-1,4.5
		c-0.5,0.8-1.2,1.5-2.1,2.1c-0.1,0.1-0.2,0.1-0.3,0.1c-0.1,0-0.2,0-0.3-0.1c-0.3-0.3-0.7-0.5-1.1-0.6c1-0.6,1.8-1.2,2.2-1.7
		c0.4-0.6,0.7-1.2,0.9-1.8c0.2-0.6,0.2-1.4,0.2-2.3c0-1.1-0.1-2.2-0.2-3.1C55.9,4.1,55.8,3.7,55.7,3.3z"/>
</g>
</svg>
