<?xml version="1.0" encoding="utf-8"?>
<!-- Generator: Adobe Illustrator 24.2.0, SVG Export Plug-In . SVG Version: 6.00 Build 0)  -->
<svg version="1.1" id="レイヤー_1" xmlns="http://www.w3.org/2000/svg" xmlns:xlink="http://www.w3.org/1999/xlink" x="0px"
	 y="0px" viewBox="0 0 288.6 356.4" style="enable-background:new 0 0 288.6 356.4;" xml:space="preserve">
<style type="text/css">
	.st0{fill:#4B4B4B;}
	.st1{display:none;}
	.st2{display:inline;fill:#4B4B4B;}
	.st3{font-family:'YuGothic-Bold';}
	.st4{font-size:75.991px;}
	.st5{enable-background:new    ;}
</style>
<g id="レイヤー_1_1_">
	<g>
		<path class="st0" d="M144.8,135.9c36.1,0,65.4-29.3,65.4-65.4S180.9,5.1,144.8,5.1S79.4,34.4,79.4,70.5
			C79.4,106.6,108.7,135.9,144.8,135.9z"/>
		<path class="st0" d="M228.5,198.9c-2.9-17.5-17.7-41.6-28.4-52.9c-2.9-3.1-7.9-1.8-9.6-0.7c-13.3,8.2-29,13-45.7,13
			c-16.8,0-32.4-4.8-45.7-13c-1.8-1.1-6.7-2.4-9.6,0.7c-10.6,11.3-25.4,35.5-28.4,52.9c-7.2,43,38.8,58.6,83.7,58.6
			S235.7,241.9,228.5,198.9z"/>
	</g>
</g>
<g id="レイヤー_2_1_" class="st1">
	<text transform="matrix(1 0 0 1 -49.406 347.3481)" class="st2 st3 st4">ログアウト</text>
</g>
<g id="レイヤー_1のコピー">
	<g>
		<path class="st0" d="M144.6,135.9c36.1,0,65.4-29.3,65.4-65.4S180.7,5.1,144.6,5.1S79.2,34.4,79.2,70.5
			C79.2,106.6,108.5,135.9,144.6,135.9z"/>
		<path class="st0" d="M228.3,198.9c-2.9-17.5-17.7-41.6-28.4-52.9c-2.9-3.1-7.9-1.8-9.6-0.7c-13.3,8.2-29,13-45.7,13
			c-16.8,0-32.4-4.8-45.7-13c-1.8-1.1-6.7-2.4-9.6,0.7c-10.6,11.3-25.4,35.5-28.4,52.9c-7.2,43,38.8,58.6,83.7,58.6
			S235.4,241.9,228.3,198.9z"/>
	</g>
	<g class="st5">
		<path class="st0" d="M58.8,329.7H29.4v4.5c0,0.6-0.1,1.1-0.4,1.2c-0.2,0.1-0.6,0.2-1.3,0.3c-1,0.1-2,0.1-3,0.1c-1,0-2,0-3-0.1
			c-1.1,0-1.6-0.4-1.6-0.9c0,0,0-0.1,0-0.2c0.1-7.9,0.2-12.9,0.2-15.1v-18.6v-4.9c0-3-0.1-5.5-0.1-7.6c0-0.7,0.3-1.1,0.9-1.1
			c2.7,0.1,7.2,0.2,13.6,0.2h18.1c7.1,0,11.9,0,14.3-0.1c0.7,0,1,0.4,1,1.2c0,0.1,0,0.2,0,0.4l-0.1,12.3v18.1
			c0,2.7,0.1,7.6,0.4,14.5c0,0.9-0.5,1.3-1.4,1.3c-1.2,0-2.4,0-3.5,0c-1.2,0-2.3,0-3.5-0.1c-0.5,0-0.8-0.1-0.9-0.2
			c-0.1-0.1-0.1-0.5-0.1-1V329.7z M58.8,321.7v-26.2H29.3v26.2H58.8z"/>
		<path class="st0" d="M111,290l13.7-0.3c1.7-0.1,3-0.4,3.8-0.9c0.2-0.2,0.6-0.3,1-0.3c0.4,0,0.8,0.1,1.2,0.4
			c1.7,1.1,3.5,2.5,5.2,4.1c0.7,0.6,1,1.2,1,1.7c0,0.5-0.3,1.1-0.9,1.6c-0.9,0.7-1.8,1.8-2.5,3.3c-4.8,9.7-9.8,17.5-15.1,23.5
			c-3.5,3.9-7.5,7.7-12,11.3c-3.9,3.1-7.6,5.7-11.1,7.6c-0.4,0.2-0.8,0.4-1.2,0.4c-0.5,0-1.1-0.3-1.7-0.9c-1.9-1.5-4.3-2.6-7.2-3.5
			c6.2-3.4,11.2-6.6,15.1-9.7c3.2-2.6,6.6-5.8,10.2-9.6c3.3-3.6,5.9-7.1,8-10.3c1.9-3,3.9-6.8,6-11.3l-18.4,0.6
			c-6.1,7.5-10.9,12.7-14.4,15.5c-0.5,0.6-1.1,0.9-1.6,0.9c-0.4,0-0.7-0.1-1.1-0.4c-2.3-1.7-4.7-2.7-7.3-3.3
			c8.5-6.9,15.3-14.4,20.4-22.6c2.3-4,3.8-7.4,4.5-10.3c4.3,1.5,7.3,2.9,8.9,4c0.5,0.3,0.8,0.8,0.8,1.3c0,0.5-0.3,1-0.9,1.3
			c-0.3,0.2-1,0.9-1.9,2C113,287.1,112.2,288.4,111,290z M130.1,282.3l4-2.8c0.1-0.1,0.3-0.2,0.4-0.2c0.2,0,0.4,0.1,0.7,0.3
			c2.6,2,5,4.7,7.2,8.1c0.1,0.2,0.2,0.4,0.2,0.6c0,0.2-0.1,0.5-0.4,0.7l-3.2,2.4c-0.2,0.1-0.4,0.2-0.6,0.2c-0.2,0-0.5-0.2-0.7-0.5
			C135.4,287.5,132.9,284.6,130.1,282.3z M137.1,277.3l3.8-2.7c0.2-0.1,0.4-0.2,0.5-0.2c0.2,0,0.4,0.1,0.7,0.3
			c2.9,2.2,5.3,4.8,7.2,7.8c0.1,0.2,0.2,0.4,0.2,0.6c0,0.3-0.1,0.5-0.4,0.7l-3,2.3c-0.2,0.2-0.4,0.3-0.6,0.3c-0.2,0-0.5-0.2-0.7-0.5
			C142.6,282.6,140,279.7,137.1,277.3z"/>
		<path class="st0" d="M194.3,299.2v25.2c0,4.5,0.1,9.7,0.2,15.8c0,0.1,0,0.2,0,0.2c0,0.7-0.4,1.1-1.2,1.1c-1.2,0.1-2.5,0.1-3.8,0.1
			s-2.5,0-3.8-0.1c-0.7,0-1.1-0.3-1.1-1c0,0,0-0.1,0-0.3c0-1.2,0.1-4,0.2-8.4c0.1-2.9,0.1-5.3,0.1-7.2V307
			c-7.6,6.4-14.6,11.3-20.9,14.6c-0.3,0.2-0.7,0.3-1.2,0.3c-0.5,0-1.1-0.2-1.6-0.7c-1.4-1.4-3.6-2.9-6.5-4.5c9-4.6,17-9.8,23.9-15.6
			c6.2-5.1,11.6-10.4,16.2-15.9c2.2-2.6,3.8-5.2,4.8-7.8c4,2.3,6.8,4,8.4,5.3c0.4,0.3,0.6,0.6,0.6,1.1c0,0.7-0.4,1.2-1.1,1.7
			c-1.1,0.7-2.6,2.1-4.5,4.2C200.6,292.8,197.6,296,194.3,299.2z"/>
		<path class="st0" d="M221.1,291.3c1.3-1.5,3-3.5,5.3-5.9c0.3-0.4,0.7-0.6,1.1-0.6c0.2,0,0.6,0.1,1,0.4c4.7,2.5,9.6,6.1,14.5,10.8
			c0.4,0.4,0.7,0.8,0.7,1.1s-0.1,0.6-0.4,1c-1.7,2.2-3.2,4.1-4.7,5.7c-0.4,0.4-0.7,0.6-0.9,0.6c-0.2,0-0.6-0.2-1-0.6
			C232,298.9,226.9,294.8,221.1,291.3z M222.8,329.2c4.1-1.1,7.5-2.4,10.3-3.8c4.9-2.5,9-4.9,12.2-7c2.8-1.9,6.1-4.2,9.6-7.1
			c5.1-4.1,9.1-7.7,12.1-10.7c2.8-2.9,5.8-6.2,8.7-10c0.4,3.3,1.1,6.3,2.1,8.9c0.2,0.6,0.4,1.1,0.4,1.4c0,0.6-0.4,1.3-1.2,2.3
			c-4.4,5.2-10.3,10.5-17.5,16.1c-6.3,4.9-13.9,9.9-22.9,14.9c-2.7,1.6-4.4,2.8-5.1,3.5c-0.5,0.5-1,0.7-1.4,0.7
			c-0.4,0-0.8-0.3-1.3-0.8C226.5,335,224.5,332.2,222.8,329.2z"/>
	</g>
</g>
</svg>
