<?xml version="1.0" encoding="utf-8"?>
<!-- Generator: Adobe Illustrator 16.0.0, SVG Export Plug-In . SVG Version: 6.00 Build 0)  -->
<!DOCTYPE svg PUBLIC "-//W3C//DTD SVG 1.1//EN" "http://www.w3.org/Graphics/SVG/1.1/DTD/svg11.dtd">
<svg version="1.1" id="レイヤー_1" xmlns="http://www.w3.org/2000/svg" xmlns:xlink="http://www.w3.org/1999/xlink" x="0px"
	 y="0px" width="1424px" height="162px" viewBox="0 0 1424 162" enable-background="new 0 0 1424 162" xml:space="preserve">
<path fill="#FF7182" d="M69.798,93.61h33.532L86.667,45.885L69.798,93.61z M11.17,155.324l56.16-144h40.32l55.337,144h-38.263
	l-11.931-34.354H60.13l-12.137,34.354H11.17z"/>
<rect x="218.568" y="11.325" fill="#FF7182" width="35.383" height="144"/>
<g>
	<defs>
		<rect id="SVGID_1_" x="-246" y="-457" width="1920" height="1080"/>
	</defs>
	<clipPath id="SVGID_2_">
		<use xlink:href="#SVGID_1_"  overflow="visible"/>
	</clipPath>
	<path clip-path="url(#SVGID_2_)" fill="#FF7182" d="M391.701,40.536h-31.269v34.148h31.269c5.485,0,9.874-1.577,13.165-4.731
		c3.429-3.154,5.143-7.269,5.143-12.343c0-5.074-1.714-9.188-5.143-12.343C401.575,42.113,397.187,40.536,391.701,40.536
		 M325.049,155.324v-144h69.943c7.406,0,14.194,1.166,20.366,3.498c6.308,2.194,11.657,5.348,16.045,9.462
		c4.526,3.977,8.023,8.778,10.492,14.4c2.606,5.623,3.908,11.795,3.908,18.515c0,9.051-2.468,17.143-7.405,24.274
		c-4.8,7.131-11.246,12.48-19.337,16.045l30.239,57.806h-39.497l-26.125-52.868h-23.246v52.868H325.049z"/>
	<path clip-path="url(#SVGID_2_)" fill="#333333" d="M571.932,141.747c9.737,0,17.555-2.468,23.452-7.405
		c5.897-5.074,8.845-11.725,8.845-19.954c0-8.229-2.948-14.812-8.845-19.749c-5.76-4.937-13.578-7.405-23.452-7.405h-42.994v54.514
		H571.932z M570.081,24.902h-41.143v49.372h41.143c8.64,0,15.565-2.263,20.777-6.789c5.348-4.526,8.023-10.492,8.023-17.897
		c0-7.406-2.675-13.371-8.023-17.897C585.646,27.165,578.721,24.902,570.081,24.902 M513.098,11.325h58.217
		c13.166,0,23.657,3.36,31.474,10.08c7.955,6.583,11.932,15.429,11.932,26.537c0,7.817-2.331,14.606-6.995,20.366
		c-4.525,5.76-10.697,9.806-18.514,12.137c9.463,2.194,17.006,6.377,22.629,12.548c5.623,6.172,8.434,13.646,8.434,22.423
		c0,11.932-4.32,21.601-12.96,29.006c-8.503,7.269-19.748,10.902-33.737,10.902h-60.48V11.325z"/>
	<path clip-path="url(#SVGID_2_)" fill="#333333" d="M749.658,25.313h-41.966V80.65h41.966c9.463,0,17.006-2.537,22.628-7.611
		c5.761-5.074,8.641-11.726,8.641-19.955c0-8.365-2.88-15.085-8.641-20.159C766.664,27.85,759.121,25.313,749.658,25.313
		 M691.853,155.324v-144h59.04c13.714,0,24.754,3.84,33.12,11.521c8.503,7.68,12.754,17.691,12.754,30.034
		c0,9.463-2.743,17.691-8.229,24.686c-5.349,6.856-12.617,11.588-21.806,14.193l30.651,63.565h-17.485l-29.212-61.508h-42.994
		v61.508H691.853z"/>
	<rect x="865.775" y="11.325" clip-path="url(#SVGID_2_)" fill="#333333" width="15.84" height="144"/>
	<path clip-path="url(#SVGID_2_)" fill="#333333" d="M1007.915,25.519H975v115.612h32.915c7.68,0,14.88-1.44,21.599-4.32
		c6.721-3.018,12.55-7.063,17.486-12.138c4.938-5.211,8.777-11.313,11.521-18.309c2.88-7.131,4.32-14.812,4.32-23.04
		c0-8.228-1.44-15.839-4.32-22.834c-2.743-7.131-6.583-13.234-11.521-18.309c-4.937-5.211-10.766-9.256-17.486-12.136
		C1022.795,27.027,1015.595,25.519,1007.915,25.519 M959.16,155.324v-144h47.726c10.561,0,20.229,1.852,29.005,5.555
		c8.916,3.703,16.527,8.777,22.834,15.223c6.31,6.308,11.247,13.92,14.813,22.834c3.566,8.777,5.349,18.24,5.349,28.388
		c0,10.149-1.782,19.681-5.349,28.595c-3.428,8.777-8.297,16.389-14.605,22.834c-6.309,6.309-13.92,11.314-22.834,15.018
		s-18.651,5.554-29.212,5.554H959.16z"/>
	<path clip-path="url(#SVGID_2_)" fill="#333333" d="M1165.757,97.519h54.515l-27.36-72L1165.757,97.519z M1127.083,155.324
		l56.981-144h18.927l56.16,144h-17.074l-17.074-45.257h-64.184l-17.074,45.257H1127.083z"/>
	<polygon clip-path="url(#SVGID_2_)" fill="#333333" points="1320.486,155.324 1320.486,11.324 1336.326,11.324 1336.326,141.336 
		1417.583,141.336 1417.583,155.324 	"/>
</g>
</svg>
