<?xml version="1.0" encoding="utf-8"?>
<!-- Generator: Adobe Illustrator 24.2.0, SVG Export Plug-In . SVG Version: 6.00 Build 0)  -->
<svg version="1.1" id="レイヤー_1" xmlns="http://www.w3.org/2000/svg" xmlns:xlink="http://www.w3.org/1999/xlink" x="0px"
	 y="0px" viewBox="0 0 356.4 356.4" style="enable-background:new 0 0 356.4 356.4;" xml:space="preserve">
<style type="text/css">
	.st0{fill:#4B4B4B;}
	.st1{enable-background:new    ;}
	.st2{display:none;}
	.st3{display:inline;}
	.st4{display:inline;fill:#4B4B4B;}
	.st5{font-family:'YuGothic-Bold';}
	.st6{font-size:75.991px;}
</style>
<g id="レイヤー_1_1_">
	<g>
		<path class="st0" d="M183.1,135.9c36.1,0,65.4-29.3,65.4-65.4S219.2,5.1,183.1,5.1s-65.4,29.3-65.4,65.4
			C117.7,106.6,147,135.9,183.1,135.9z"/>
		<path class="st0" d="M266.7,198.9c-2.9-17.5-17.7-41.6-28.4-52.9c-2.9-3.1-7.9-1.8-9.6-0.7c-13.3,8.2-29,13-45.7,13
			c-16.8,0-32.4-4.8-45.7-13c-1.8-1.1-6.7-2.4-9.6,0.7c-10.6,11.3-25.4,35.5-28.4,52.9c-7.2,43,38.8,58.6,83.7,58.6
			S273.9,241.9,266.7,198.9z"/>
	</g>
</g>
<g id="レイヤー_2_1_">
	<g class="st1">
		<path class="st0" d="M59.8,327.4H30.3v4.5c0,0.6-0.1,1.1-0.4,1.2c-0.2,0.1-0.6,0.2-1.3,0.3c-1,0-2,0.1-3,0.1s-2,0-3-0.1
			c-1.1,0-1.6-0.4-1.6-0.9c0,0,0-0.1,0-0.2c0.1-7.9,0.2-12.9,0.2-15.1v-18.6v-4.9c0-3-0.1-5.5-0.1-7.6c0-0.7,0.3-1.1,0.9-1.1
			c2.7,0.1,7.2,0.2,13.6,0.2h18.1c7.1,0,11.9,0,14.3-0.1c0.7,0,1,0.4,1,1.2c0,0.1,0,0.2,0,0.4l-0.1,12.3v18.1
			c0,2.7,0.1,7.6,0.4,14.5c0,0.9-0.5,1.3-1.4,1.3c-1.2,0-2.4,0-3.5,0c-1.2,0-2.4,0-3.5-0.1c-0.5,0-0.8-0.1-0.9-0.2
			c-0.1-0.1-0.1-0.5-0.1-1V327.4z M59.8,319.4v-26.2H30.3v26.2H59.8z"/>
		<path class="st0" d="M112,287.8l13.7-0.3c1.7-0.1,3-0.4,3.8-0.9c0.2-0.2,0.6-0.3,1-0.3c0.4,0,0.8,0.1,1.2,0.4
			c1.7,1.1,3.5,2.5,5.2,4.1c0.7,0.6,1,1.1,1,1.7c0,0.5-0.3,1.1-0.9,1.6c-0.9,0.7-1.8,1.8-2.5,3.3c-4.8,9.7-9.8,17.5-15.1,23.5
			c-3.5,3.9-7.5,7.7-12,11.3c-3.9,3.1-7.6,5.7-11.1,7.6c-0.4,0.2-0.8,0.4-1.2,0.4c-0.5,0-1.1-0.3-1.7-0.9c-1.9-1.5-4.3-2.6-7.2-3.5
			c6.2-3.4,11.2-6.6,15.1-9.7c3.2-2.6,6.6-5.8,10.2-9.6c3.3-3.6,5.9-7.1,8-10.3c1.9-3,3.9-6.8,6-11.3l-18.4,0.6
			c-6.1,7.5-10.9,12.7-14.4,15.5c-0.5,0.6-1.1,0.9-1.6,0.9c-0.4,0-0.7-0.1-1.1-0.4c-2.3-1.7-4.7-2.7-7.3-3.3
			c8.5-6.9,15.3-14.4,20.4-22.6c2.3-4,3.8-7.4,4.5-10.3c4.3,1.5,7.3,2.9,8.9,4c0.5,0.3,0.8,0.8,0.8,1.3c0,0.5-0.3,1-0.9,1.3
			c-0.3,0.2-1,0.9-1.9,2C113.9,284.8,113.1,286.1,112,287.8z M131.1,280l4-2.8c0.1-0.1,0.3-0.2,0.4-0.2c0.2,0,0.4,0.1,0.7,0.3
			c2.6,2,5,4.7,7.2,8.1c0.1,0.2,0.2,0.4,0.2,0.6c0,0.2-0.1,0.5-0.4,0.7l-3.2,2.4c-0.2,0.1-0.4,0.2-0.6,0.2c-0.2,0-0.5-0.2-0.7-0.5
			C136.4,285.2,133.8,282.3,131.1,280z M138,275l3.8-2.7c0.2-0.1,0.4-0.2,0.5-0.2c0.2,0,0.4,0.1,0.7,0.3c2.9,2.2,5.3,4.8,7.2,7.8
			c0.1,0.2,0.2,0.4,0.2,0.6c0,0.3-0.1,0.5-0.4,0.7l-3,2.3c-0.2,0.2-0.4,0.3-0.6,0.3c-0.2,0-0.5-0.2-0.7-0.5
			C143.5,280.3,141,277.4,138,275z"/>
		<path class="st0" d="M157,281c4.8,0.3,10,0.5,15.4,0.5H205c2.7,0,4.5-0.1,5.3-0.4c0.9-0.4,1.3-0.6,1.4-0.6c0.5,0,1.1,0.4,1.7,1.1
			c1.4,1.2,2.9,2.8,4.6,4.8c0.4,0.5,0.6,0.9,0.6,1.4c0,0.6-0.4,1.1-1.1,1.6c-0.6,0.4-1.3,1.2-2,2.2c-3.8,5.7-8.2,10.6-13.4,14.7
			c-0.5,0.4-1,0.7-1.6,0.7c-0.6,0-1.3-0.2-1.9-0.7c-1.6-1.3-3.7-2.4-6.3-3.2c3.5-2.6,6.2-4.8,8.1-6.7c2-2,3.8-4.1,5.5-6.6h-32.8
			c-3,0-7.5,0.2-13.4,0.6c-0.7,0-1.2-0.3-1.4-1.2C158,288,157.5,285.3,157,281z M161.5,333.9c4.4-2.3,7.8-4.6,10.3-7.1
			c2.2-2.1,4-4.6,5.6-7.4c2.5-4.7,3.7-10.6,3.7-18c0-2.6-0.2-5-0.7-7.1c4.5,0.4,7.8,0.9,9.8,1.4c0.9,0.2,1.3,0.7,1.3,1.4
			c0,0.4-0.1,0.8-0.4,1.3c-0.4,0.8-0.6,1.8-0.7,3.1c-0.3,8.7-1.8,15.7-4.5,20.9c-3.3,6.3-7.9,11.3-13.8,15.1
			c-0.8,0.5-1.5,0.7-2.2,0.7c-0.5,0-1.1-0.2-1.5-0.7C166.7,336.3,164.4,335,161.5,333.9z"/>
		<path class="st0" d="M261.6,287.9h10.2c2.9,0,4.8-0.3,5.7-0.9c0.3-0.2,0.7-0.4,1-0.4c0.6,0,1.2,0.3,1.7,0.8c2,1.5,3.6,3,5.1,4.7
			c0.3,0.4,0.5,0.8,0.5,1.2c0,0.5-0.3,1.1-0.8,1.7c-0.5,0.5-1.1,1.8-1.6,3.7c-2.9,9.5-6.1,17-9.6,22.3c-2.3,3.7-5.4,7.3-9.2,10.8
			c-3.3,3.1-6.8,5.7-10.4,7.8c-0.4,0.3-0.9,0.4-1.2,0.4s-0.9-0.3-1.6-0.8c-2-1.4-4.5-2.5-7.6-3.4c5.6-3.1,10.2-6.2,13.7-9.4
			c3-2.7,5.7-5.9,8.1-9.5c4-6,7-13.1,8.8-21.2h-33.1v6.4c0,1.3,0,2.9,0.1,4.9c0.1,2.5,0.1,3.9,0.1,4.3c0,0.6-0.1,1.1-0.3,1.2
			c-0.2,0.1-0.5,0.2-1,0.2c-1.1,0.1-2.3,0.1-3.5,0.1s-2.4,0-3.5-0.1c-0.8,0-1.2-0.4-1.2-1.2c0.1-5.2,0.1-8.3,0.1-9.4v-6.2
			c0-3.4,0-5.9-0.1-7.3c0-0.1,0-0.1,0-0.1c0-0.6,0.4-0.9,1.1-0.9c3.6,0.1,7.5,0.2,11.5,0.2h7.8v-3c0-4.7-0.2-8.1-0.7-10.1
			c4.4,0.3,7.5,0.7,9.4,1.1c1.1,0.2,1.6,0.7,1.6,1.4c0,0.3-0.1,0.6-0.3,1c-0.6,1.7-0.9,3.7-0.9,5.9V287.9z"/>
		<path class="st0" d="M318,297.3c9.5,3,17.6,6.4,24.2,10.4c0.7,0.3,1,0.8,1,1.3c0,0.2,0,0.4-0.1,0.7c-0.9,2.4-2,4.6-3.3,6.6
			c-0.3,0.6-0.7,0.9-1,0.9c-0.3,0-0.6-0.1-0.9-0.4c-7.1-4.6-13.8-7.8-20-9.8v16.8c0,2.8,0.1,7.7,0.3,14.9c0,0.1,0,0.2,0,0.2
			c0,0.6-0.5,0.9-1.4,0.9c-1.1,0.1-2.3,0.1-3.4,0.1c-1.1,0-2.3,0-3.4-0.1c-1,0-1.4-0.4-1.4-1.2c0.2-4.9,0.3-9.9,0.3-15v-37.4
			c0-4.6-0.2-8.4-0.7-11.2c4.5,0.3,7.6,0.7,9.5,1.2c1,0.2,1.4,0.6,1.4,1.3c0,0.4-0.2,1-0.6,1.7c-0.3,0.7-0.5,3-0.5,7.1V297.3z"/>
	</g>
</g>
<g id="レイヤー_1のコピー" class="st2">
	<g class="st3">
		<path class="st0" d="M182.8,135.9c36.1,0,65.4-29.3,65.4-65.4S218.9,5.1,182.8,5.1s-65.4,29.3-65.4,65.4
			C117.5,106.6,146.7,135.9,182.8,135.9z"/>
		<path class="st0" d="M266.5,198.9c-2.9-17.5-17.7-41.6-28.4-52.9c-2.9-3.1-7.9-1.8-9.6-0.7c-13.3,8.2-29,13-45.7,13
			c-16.8,0-32.4-4.8-45.7-13c-1.8-1.1-6.7-2.4-9.6,0.7c-10.6,11.3-25.4,35.5-28.4,52.9c-7.2,43,38.8,58.6,83.7,58.6
			S273.7,241.9,266.5,198.9z"/>
	</g>
	<text transform="matrix(1 0 0 1 28.6738 348.1411)" class="st4 st5 st6">ログイン</text>
</g>
</svg>
